<svg id="Layer_1" data-name="Layer 1" xmlns="http://www.w3.org/2000/svg" xmlns:xlink="http://www.w3.org/1999/xlink" viewBox="0 0 1878 825.77"><defs><style>.cls-1{fill:url(#linear-gradient);}.cls-2{fill:url(#linear-gradient-2);}.cls-3{fill:url(#linear-gradient-3);}.cls-4{fill:#4f4f4f;}</style><linearGradient id="linear-gradient" x1="-60.65" y1="278.51" x2="1876.72" y2="305.7" gradientUnits="userSpaceOnUse"><stop offset="0" stop-color="#00b8fe"/><stop offset="0.51" stop-color="#016eff"/><stop offset="1" stop-color="#1447d4"/></linearGradient><linearGradient id="linear-gradient-2" x1="1000.1" y1="1091.65" x2="2937.47" y2="1118.83" xlink:href="#linear-gradient"/><linearGradient id="linear-gradient-3" x1="1000.2" y1="1084.04" x2="2937.58" y2="1111.23" xlink:href="#linear-gradient"/></defs><polygon class="cls-1" points="1621.25 263.9 1859.06 0 1709.22 0 1455 292.53 1455 0 1336.72 0 1336.72 603.57 1455 603.57 1455 449.1 1543.81 351.03 1734.05 603.57 1878 603.57 1621.25 263.9"/><path class="cls-2" d="M1613.65,1082.18h.87c50.09-27,74.91-69.05,74.91-125.87q-.65-71.35-55.55-116.14c-36.64-29.91-84.64-44.62-144-44.62H1317.34V897.27l171.31-.29q37.24-.65,60.59,20.18c15.58,13.89,23.18,31.6,23.18,53,.39,21.49-7.16,39.59-22.31,54.3a73.27,73.27,0,0,1-27.78,16.94l-87,.24h-118V897.27H1202v144.41H1061V1157h141v139.42h115.32V1157h247.23c2,1.49,3.89,3,5.72,4.74q24,22.07,24,55.56,0,34.7-24,56.81c-16,14.71-37.46,22.31-64.36,22.31H1317.34v102.69h189c63.59,0,113.68-15.58,150.26-46.31s54.74-72.4,54.74-124.57c0-33.24-8.42-62.28-25.7-87.54S1644.38,1096.07,1613.65,1082.18Z" transform="translate(-1061 -795.12)"/><path class="cls-3" d="M2264.73,1103.23c23.18-33.68,34.94-70.75,34.94-111.54q0-76.44-56.81-136.38c-37.89-40-88-59.76-149.83-59.76H1799.24v603.56h117.45V1187.82H2045l136.37,210.85h136.37l-149.82-223C2209.18,1160.87,2241.6,1136.87,2264.73,1103.23Zm-227.11-34.36h-97.75a77.21,77.21,0,0,1,0-154.42h97.75Zm14.52,0V914.45h97.8a77.21,77.21,0,0,1,0,154.42Z" transform="translate(-1061 -795.12)"/><polygon class="cls-4" points="74.31 729.51 27.5 662.65 13.93 662.65 13.93 788.14 28.2 788.14 28.2 687.24 74.31 752.44 120.34 687.24 120.34 788.14 134.52 788.14 134.52 662.65 120.87 662.65 74.31 729.51"/><path class="cls-4" d="M1312.47,1491.63q-20.09,0-32.82,13.39c-8.48,8.93-12.77,20-12.77,33.43,0,14.27,4.37,25.73,13.12,34.3s20,12.87,34,12.87c10.5,0,19.34-2.45,26.51-7.44a45,45,0,0,0,15.75-18.38l-12.68-3.76a29.84,29.84,0,0,1-11,12.34c-5,3.24-11.11,4.9-18.38,4.9q-14.7,0-23.63-8.4c-6-5.6-9.27-13-9.88-22.05h76.3a41.83,41.83,0,0,0,.35-6.48c0-12.86-4-23.54-12-32S1326.38,1491.63,1312.47,1491.63Zm-32,41a30.6,30.6,0,0,1,9.71-20.39q8.8-8.4,22.06-8.4,13.79,0,22,7.87t9.19,20.74Z" transform="translate(-1061 -795.12)"/><path class="cls-4" d="M1503.19,1509.92c-8-12.16-19.78-18.29-35.44-18.29-12.87,0-23.63,4.47-32.2,13.39s-12.87,20-12.87,33.43,4.29,24.68,12.87,33.69,19.33,13.48,32.2,13.48q23.76,0,35.44-18.64v16.28h13.74V1452.43h-13.74Zm-9.54,53.38a32.54,32.54,0,0,1-23.89,9.89l.09-.17q-14.7,0-24.15-9.72c-6.3-6.47-9.45-14.7-9.45-24.59,0-10.06,3.15-18.29,9.45-24.76s14.35-9.71,24.15-9.71a32.52,32.52,0,0,1,23.8,9.88c6.56,6.57,9.89,14.79,9.89,24.59S1500.21,1556.74,1493.65,1563.3Z" transform="translate(-1061 -795.12)"/><rect class="cls-4" x="533.5" y="698.79" width="13.74" height="89.43"/><path class="cls-4" d="M1601.33,1458.64a9.46,9.46,0,0,0-6.74,2.63,8.66,8.66,0,0,0-2.8,6.47,9.27,9.27,0,0,0,9.54,9.54l.17-.08a8.91,8.91,0,0,0,6.74-2.72,9.51,9.51,0,0,0,2.62-6.82,8.48,8.48,0,0,0-2.8-6.39A9.43,9.43,0,0,0,1601.33,1458.64Z" transform="translate(-1061 -795.12)"/><path class="cls-4" d="M1727.38,1504.15a30.92,30.92,0,0,1,18.2,5.51q7.88,5.52,10.24,12.86l13-3.76c-2-6.91-6.74-13.12-14.18-18.73s-16.45-8.4-27-8.4q-20.08,0-33.34,13.39c-8.84,8.93-13.3,20-13.3,33.26,0,13.47,4.46,24.76,13.3,33.77s19.81,13.5,33.08,13.56c10.69,0,19.73-2.73,27.13-8.22s12.16-11.81,14.17-18.9l-12.95-3.41q-2.23,7.35-10,12.6a32,32,0,0,1-18.38,5.25c-9.71,0-17.68-3.33-23.8-10.06a36.8,36.8,0,0,1,0-48.66C1709.61,1507.47,1717.58,1504.15,1727.38,1504.15Z" transform="translate(-1061 -795.12)"/><path class="cls-4" d="M1727.55,1585.62h0Z" transform="translate(-1061 -795.12)"/><path class="cls-4" d="M1847.13,1458.64a9.46,9.46,0,0,0-6.74,2.63,8.66,8.66,0,0,0-2.8,6.47,9.27,9.27,0,0,0,9.54,9.54l.17-.08a8.91,8.91,0,0,0,6.74-2.72,9.51,9.51,0,0,0,2.63-6.82,8.51,8.51,0,0,0-2.8-6.39A9.48,9.48,0,0,0,1847.13,1458.64Z" transform="translate(-1061 -795.12)"/><rect class="cls-4" x="779.3" y="698.79" width="13.74" height="89.43"/><path class="cls-4" d="M1979,1491.72v-.09a38.31,38.31,0,0,0-19.68,5,38.85,38.85,0,0,0-13.57,13v-15.75H1932v89.43h13.74v-45c0-10.06,2.8-18.2,8.31-24.41s12.78-9.28,21.79-9.28q12.09,0,18.64,7.35c4.38,4.9,6.57,11.82,6.57,20.66v50.58h13.82v-52.51c0-12.16-3.23-21.7-9.62-28.61S1990.07,1491.72,1979,1491.72Z" transform="translate(-1061 -795.12)"/><path class="cls-4" d="M2130.91,1491.63q-20.09,0-32.82,13.39c-8.49,8.93-12.77,20-12.77,33.43,0,14.27,4.37,25.73,13.12,34.3s20,12.87,34,12.87c10.5,0,19.34-2.45,26.51-7.44a45,45,0,0,0,15.75-18.38L2162,1556a29.75,29.75,0,0,1-11,12.34c-5,3.24-11.12,4.9-18.38,4.9q-14.7,0-23.63-8.4c-6-5.6-9.27-13-9.89-22.05h76.31a41.83,41.83,0,0,0,.35-6.48q0-19.29-12-32C2155.76,1495.83,2144.82,1491.63,2130.91,1491.63Zm-32,41a30.6,30.6,0,0,1,9.71-20.39q8.8-8.4,22.06-8.4,13.77,0,22,7.87t9.19,20.74Z" transform="translate(-1061 -795.12)"/><path class="cls-4" d="M2407.43,1515.87l-30.46-9.71c-7.09-2.27-12.16-4.72-15.14-7.44a13.32,13.32,0,0,1-4.46-10.32c0-5.43,2.54-10.07,7.7-14s11.73-5.86,19.69-5.86q13.51,0,23.37,5.78a34.91,34.91,0,0,1,14.44,15.92l13.21-4.11c-3.76-8.84-10.15-16.1-19.08-21.79s-19.6-8.57-32-8.57q-18,0-29.92,9.71c-8,6.47-12,14.26-12,23.36q0,20.49,27.74,29.41l31.33,10c8.4,2.63,14.35,5.6,17.76,8.93a16.58,16.58,0,0,1,5.16,12.34c0,6.21-3.06,11.64-9.1,16.36s-13.91,7.09-23.63,7.09q-15.34,0-26.77-8.14a41.74,41.74,0,0,1-15.75-20.65l-13.57,4.2c3.41,10.5,10.06,19.43,20,26.69s21.7,10.94,35.27,10.94l.43-.35c13.92,0,25.29-3.59,34.22-10.85s13.39-16,13.39-26.26c0-8.75-2.63-15.48-7.88-20.3S2418.19,1519.29,2407.43,1515.87Z" transform="translate(-1061 -795.12)"/><path class="cls-4" d="M2558.94,1491.72v-.09a38.34,38.34,0,0,0-19.69,5,38.73,38.73,0,0,0-13.56,13v-57.14H2512v130.82h13.74v-45c0-10.06,2.8-18.2,8.31-24.41s12.78-9.28,21.79-9.28q12.08,0,18.64,7.35c4.38,4.9,6.56,11.82,6.56,20.66v50.58h13.83v-52.51c0-12.16-3.24-21.7-9.63-28.61S2570.06,1491.72,2558.94,1491.72Z" transform="translate(-1061 -795.12)"/><path class="cls-4" d="M2712.47,1491.63q-20.22,0-33.78,13.39c-9,8.93-13.56,20-13.56,33.43s4.46,24.59,13.47,33.6,20.31,13.57,33.78,13.57h.09c13.48,0,24.68-4.55,33.6-13.57s13.39-20.21,13.39-33.6S2755,1514,2746.07,1505,2726,1491.63,2712.47,1491.63Zm23.72,71.67q-9.58,9.72-23.89,9.72l.08-.18c-9.71,0-17.76-3.24-24.24-9.71s-9.71-14.62-9.71-24.42,3.24-17.94,9.71-24.5,14.53-9.8,24.24-9.8a32,32,0,0,1,23.89,9.89c6.39,6.56,9.54,14.79,9.54,24.59S2742.57,1556.83,2736.19,1563.3Z" transform="translate(-1061 -795.12)"/><path class="cls-4" d="M2912.2,1505.11c-8.57-8.93-19.34-13.39-32.2-13.39l.09-.09c-15.84,0-27.65,6.13-35.36,18.29v-16.1H2831v127.06h13.73V1567a38.34,38.34,0,0,0,14.44,13.74,42.45,42.45,0,0,0,20.83,5c12.86,0,23.63-4.47,32.2-13.48s12.87-20.21,12.87-33.69S2920.78,1514,2912.2,1505.11Zm-10.15,58.46q-9.45,9.71-24.15,9.71l.09-.18a32.45,32.45,0,0,1-23.89-9.8c-6.57-6.56-9.89-14.7-9.89-24.5s3.24-17.94,9.8-24.5a32.5,32.5,0,0,1,23.89-9.8q14.7,0,24.15,9.71c6.3,6.48,9.45,14.7,9.45,24.77C2911.5,1548.86,2908.35,1557.09,2902.05,1563.57Z" transform="translate(-1061 -795.12)"/></svg>